<?xml version="1.0" encoding="UTF-8"?>
<svg xmlns="http://www.w3.org/2000/svg" viewBox="0 0 1600 900">
<defs>
  <linearGradient id="sky" x1="0" y1="0" x2="0" y2="1"><stop stop-color="#dff4ff"/><stop offset=".58" stop-color="#b8e1f4"/><stop offset="1" stop-color="#8bc7df"/></linearGradient>
  <linearGradient id="sea" x1="0" y1="0" x2="1" y2="1"><stop stop-color="#6dbbd4"/><stop offset="1" stop-color="#2f8fac"/></linearGradient>
  <linearGradient id="desk" x1="0" y1="0" x2="0" y2="1"><stop stop-color="#d9b98c"/><stop offset="1" stop-color="#a8784f"/></linearGradient>
  <filter id="blur"><feGaussianBlur stdDeviation="3"/></filter>
</defs>
<rect width="1600" height="900" fill="url(#sky)"/>
<circle cx="1320" cy="145" r="105" fill="#fff" opacity=".42" filter="url(#blur)"/>
<g fill="#fff" opacity=".55">
 <ellipse cx="300" cy="120" rx="180" ry="42"/><ellipse cx="520" cy="165" rx="150" ry="35"/>
 <ellipse cx="1040" cy="100" rx="190" ry="38"/><ellipse cx="1420" cy="250" rx="180" ry="40"/>
</g>
<path d="M0 410 C180 350 330 370 490 405 C650 440 760 420 910 380 C1090 330 1260 365 1600 300 L1600 900 L0 900Z" fill="url(#sea)"/>
<g fill="#5a9f6b">
 <path d="M850 390 C900 315 1010 315 1080 385 C1015 410 920 420 850 390Z"/>
 <path d="M1110 360 C1170 275 1290 285 1370 350 C1300 385 1190 390 1110 360Z"/>
 <path d="M1360 440 C1420 355 1530 365 1600 420 L1600 485 C1510 500 1430 485 1360 440Z"/>
</g>
<g fill="#2f7250" opacity=".9">
 <path d="M885 380 l45 -55 20 62z"/><path d="M1170 350 l55 -72 25 82z"/><path d="M1430 425 l45 -70 30 82z"/>
</g>
<g opacity=".4" stroke="#fff" fill="none" stroke-width="4">
 <path d="M0 500 C250 455 420 520 650 490 S1080 450 1600 505"/>
 <path d="M0 570 C250 525 450 590 720 550 S1100 525 1600 580"/>
</g>
<rect y="690" width="1600" height="210" fill="url(#desk)"/>
<g opacity=".18" stroke="#6d4930" stroke-width="5">
 <path d="M0 735 C300 700 530 760 820 720 S1300 700 1600 740"/>
 <path d="M0 805 C330 770 620 825 950 790 S1300 780 1600 820"/>
 <path d="M120 875 C420 835 690 900 980 855 S1370 845 1600 880"/>
</g>
<g transform="translate(70 530)">
 <rect x="0" y="100" width="230" height="38" rx="8" fill="#234f73"/>
 <rect x="15" y="62" width="220" height="38" rx="8" fill="#e5c99e"/>
 <rect x="30" y="24" width="210" height="38" rx="8" fill="#39698c"/>
 <rect x="45" y="-14" width="200" height="38" rx="8" fill="#f0dfbd"/>
</g>
<g transform="translate(1440 500)" fill="#4c9a63">
 <path d="M20 190 C-40 90 20 0 55 -35 C65 55 50 135 20 190Z"/>
 <path d="M35 175 C80 65 145 40 190 35 C145 105 95 155 35 175Z"/>
 <path d="M15 150 C-55 100 -85 45 -90 0 C-30 30 5 80 15 150Z"/>
</g>
<rect width="1600" height="900" fill="#fff" opacity=".06"/>
</svg>